<svg xmlns="http://www.w3.org/2000/svg" fill="none" viewBox="0 0 32 33"><path fill="#fff" fill-rule="evenodd" d="M18.185 16.7a1.95 1.95 0 0 1-1.957 1.943 1.95 1.95 0 0 1-1.957-1.943 1.95 1.95 0 0 1 1.957-1.943c1.08 0 1.957.87 1.957 1.943ZM18.185 9.841a1.95 1.95 0 0 1-1.957 1.943 1.95 1.95 0 0 1-1.957-1.943 1.95 1.95 0 0 1 1.957-1.943c1.08 0 1.957.87 1.957 1.943ZM18.186 2.529a1.95 1.95 0 0 1-1.957 1.942 1.95 1.95 0 0 1-1.957-1.942A1.95 1.95 0 0 1 16.23.586c1.08 0 1.957.87 1.957 1.943ZM18.185 30.642a1.95 1.95 0 0 1-1.957 1.943 1.95 1.95 0 0 1-1.957-1.943 1.95 1.95 0 0 1 1.957-1.943c1.08 0 1.957.87 1.957 1.943ZM18.185 23.325a1.95 1.95 0 0 1-1.957 1.943 1.95 1.95 0 0 1-1.957-1.943 1.95 1.95 0 0 1 1.957-1.942c1.08 0 1.957.87 1.957 1.942ZM30.043 14.757c1.08 0 1.957.87 1.957 1.943a1.95 1.95 0 0 1-1.957 1.943 1.95 1.95 0 0 1-1.957-1.943 1.95 1.95 0 0 1 1.957-1.943ZM22.906 14.757c1.08 0 1.957.87 1.957 1.943a1.95 1.95 0 0 1-1.957 1.943A1.95 1.95 0 0 1 20.95 16.7a1.95 1.95 0 0 1 1.957-1.943ZM1.957 18.643A1.95 1.95 0 0 1 0 16.7a1.95 1.95 0 0 1 1.957-1.943c1.08 0 1.957.87 1.957 1.943a1.95 1.95 0 0 1-1.957 1.943ZM9.094 18.643A1.95 1.95 0 0 1 7.137 16.7a1.95 1.95 0 0 1 1.957-1.943c1.08 0 1.956.87 1.956 1.943a1.95 1.95 0 0 1-1.956 1.943ZM22.45 13.047a1.966 1.966 0 0 1-2.767 0 1.933 1.933 0 0 1 0-2.748 1.967 1.967 0 0 1 2.767 0 1.933 1.933 0 0 1 0 2.748ZM27.743 8.246a1.967 1.967 0 0 1-2.768 0 1.933 1.933 0 0 1 0-2.748 1.967 1.967 0 0 1 2.768 0 1.933 1.933 0 0 1 0 2.748ZM7.483 28.36a1.967 1.967 0 0 1-2.767 0 1.933 1.933 0 0 1 0-2.748 1.967 1.967 0 0 1 2.767 0 1.933 1.933 0 0 1 0 2.747ZM12.547 23.102a1.967 1.967 0 0 1-2.767 0 1.933 1.933 0 0 1 0-2.747 1.967 1.967 0 0 1 2.767 0 1.932 1.932 0 0 1 0 2.747ZM27.284 25.612a1.933 1.933 0 0 1 0 2.748 1.967 1.967 0 0 1-2.768 0 1.933 1.933 0 0 1 0-2.748 1.967 1.967 0 0 1 2.768 0ZM22.217 20.355a1.932 1.932 0 0 1 0 2.747 1.967 1.967 0 0 1-2.767 0 1.933 1.933 0 0 1 0-2.747 1.967 1.967 0 0 1 2.767 0ZM4.257 8.246a1.933 1.933 0 0 1 0-2.748 1.967 1.967 0 0 1 2.767 0 1.933 1.933 0 0 1 0 2.748 1.967 1.967 0 0 1-2.767 0ZM9.552 13.047a1.933 1.933 0 0 1 0-2.748 1.967 1.967 0 0 1 2.767 0 1.933 1.933 0 0 1 0 2.748 1.966 1.966 0 0 1-2.767 0Z" clip-rule="evenodd"/></svg>