<svg xmlns="http://www.w3.org/2000/svg" fill="none" viewBox="0 0 32 33"><path fill="#fff" d="M15.74 12.367c1.373 0 2.486-1.134 2.486-2.533 0-1.4-1.113-2.533-2.486-2.533-1.373 0-2.486 1.134-2.486 2.533s1.113 2.533 2.486 2.533ZM3.934 12.268c1.373 0 2.487-1.134 2.487-2.533S5.307 7.202 3.934 7.202 1.448 8.336 1.448 9.735c0 1.4 1.113 2.533 2.486 2.533ZM27.115 12.984c1.373 0 2.486-1.134 2.486-2.533s-1.113-2.533-2.486-2.533c-1.373 0-2.486 1.134-2.486 2.533 0 1.4 1.113 2.533 2.486 2.533ZM9.072 7.57c1.373 0 2.486-1.134 2.486-2.533s-1.113-2.533-2.486-2.533c-1.373 0-2.486 1.134-2.486 2.533S7.699 7.57 9.072 7.57ZM22.217 7.57c1.373 0 2.486-1.134 2.486-2.533s-1.113-2.533-2.486-2.533c-1.373 0-2.486 1.134-2.486 2.533s1.113 2.533 2.486 2.533ZM21.428 16.129c1.373 0 2.486-1.134 2.486-2.533 0-1.4-1.113-2.534-2.486-2.534-1.373 0-2.487 1.135-2.487 2.534 0 1.399 1.114 2.533 2.487 2.533ZM9.713 16.129c1.373 0 2.486-1.134 2.486-2.533 0-1.4-1.113-2.534-2.486-2.534-1.373 0-2.486 1.135-2.486 2.534 0 1.399 1.113 2.533 2.486 2.533ZM15.739 5.652c1.373 0 2.486-1.134 2.486-2.533S17.112.586 15.739.586c-1.373 0-2.486 1.134-2.486 2.533s1.113 2.533 2.486 2.533ZM15.74 19.086c1.372 0 2.485-1.134 2.485-2.533 0-1.4-1.113-2.534-2.486-2.534-1.373 0-2.486 1.135-2.486 2.534 0 1.399 1.113 2.533 2.486 2.533ZM29.514 19.086c1.373 0 2.486-1.134 2.486-2.533 0-1.4-1.113-2.534-2.486-2.534-1.374 0-2.487 1.135-2.487 2.534 0 1.399 1.113 2.533 2.486 2.533ZM2.486 19.086c1.373 0 2.486-1.134 2.486-2.533 0-1.4-1.113-2.534-2.486-2.534C1.113 14.02 0 15.155 0 16.553c0 1.399 1.113 2.533 2.486 2.533ZM15.768 20.805c-1.373 0-2.486 1.134-2.486 2.533s1.113 2.533 2.486 2.533c1.373 0 2.486-1.134 2.486-2.533s-1.113-2.533-2.486-2.533ZM27.598 20.188c-1.373 0-2.486 1.134-2.486 2.533s1.113 2.533 2.486 2.533c1.373 0 2.486-1.134 2.486-2.533 0-1.4-1.113-2.533-2.486-2.533ZM4.393 20.188c-1.373 0-2.486 1.134-2.486 2.533s1.113 2.533 2.486 2.533c1.373 0 2.486-1.134 2.486-2.533 0-1.4-1.113-2.533-2.486-2.533ZM22.436 25.602c-1.373 0-2.486 1.134-2.486 2.533s1.113 2.533 2.486 2.533c1.373 0 2.486-1.134 2.486-2.533s-1.113-2.533-2.486-2.533ZM9.291 25.602c-1.373 0-2.486 1.134-2.486 2.533s1.113 2.533 2.486 2.533c1.373 0 2.486-1.134 2.486-2.533s-1.113-2.533-2.486-2.533ZM10.08 17.043c-1.373 0-2.486 1.134-2.486 2.533 0 1.4 1.113 2.533 2.486 2.533 1.373 0 2.486-1.134 2.486-2.533s-1.113-2.533-2.486-2.533ZM21.795 17.043c-1.373 0-2.486 1.134-2.486 2.533 0 1.4 1.113 2.533 2.486 2.533 1.373 0 2.486-1.134 2.486-2.533s-1.113-2.533-2.486-2.533ZM15.769 27.52c-1.373 0-2.486 1.134-2.486 2.533s1.113 2.533 2.486 2.533c1.373 0 2.486-1.134 2.486-2.533 0-1.4-1.113-2.533-2.486-2.533Z"/></svg>