<svg xmlns="http://www.w3.org/2000/svg" fill="none" viewBox="0 0 32 33"><path fill="#fff" d="M15.881 12.729c1.43 0 2.588-1.169 2.588-2.61 0-1.443-1.158-2.612-2.588-2.612-1.43 0-2.588 1.17-2.588 2.611 0 1.442 1.159 2.61 2.588 2.61ZM1.804 18.862c.996 0 1.804-.814 1.804-1.82 0-1.004-.808-1.82-1.804-1.82S0 16.039 0 17.043c0 1.005.808 1.82 1.804 1.82ZM9.609 23.253c.996 0 1.803-.815 1.803-1.82 0-1.005-.807-1.82-1.803-1.82-.997 0-1.804.815-1.804 1.82 0 1.005.807 1.82 1.804 1.82ZM15.607 26.34c.845 0 1.53-.691 1.53-1.543s-.685-1.543-1.53-1.543c-.844 0-1.529.69-1.529 1.543 0 .852.685 1.542 1.53 1.542ZM8.784 30.968c.65 0 1.176-.531 1.176-1.187 0-.655-.526-1.186-1.176-1.186-.65 0-1.177.53-1.177 1.186 0 .656.527 1.187 1.177 1.187ZM15.451 32.587c.542 0 .98-.443.98-.989a.985.985 0 0 0-.98-.989.985.985 0 0 0-.98.99c0 .546.439.988.98.988ZM3.295 26.261c.845 0 1.53-.69 1.53-1.543 0-.852-.685-1.542-1.53-1.542s-1.53.69-1.53 1.543c0 .851.685 1.542 1.53 1.542ZM3.569 13.362c1.43 0 2.588-1.17 2.588-2.611 0-1.442-1.159-2.61-2.588-2.61C2.139 8.14.98 9.308.98 10.75s1.16 2.61 2.589 2.61ZM27.727 13.362c1.43 0 2.588-1.17 2.588-2.611 0-1.442-1.159-2.61-2.588-2.61-1.43 0-2.588 1.168-2.588 2.61s1.159 2.61 2.588 2.61ZM8.942 7.784c1.43 0 2.588-1.17 2.588-2.611 0-1.442-1.159-2.61-2.588-2.61-1.43 0-2.588 1.168-2.588 2.61s1.158 2.61 2.588 2.61ZM22.627 7.784c1.43 0 2.588-1.17 2.588-2.611 0-1.442-1.158-2.61-2.588-2.61-1.43 0-2.588 1.168-2.588 2.61s1.159 2.61 2.588 2.61ZM21.803 16.607c1.43 0 2.588-1.168 2.588-2.61s-1.158-2.611-2.588-2.611c-1.43 0-2.588 1.169-2.588 2.61 0 1.442 1.159 2.611 2.588 2.611ZM21.803 24.042c1.43 0 2.588-1.17 2.588-2.611 0-1.442-1.158-2.61-2.588-2.61-1.43 0-2.588 1.168-2.588 2.61s1.159 2.61 2.588 2.61ZM29.413 20.444c1.429 0 2.588-1.168 2.588-2.61s-1.16-2.611-2.588-2.611c-1.43 0-2.589 1.169-2.589 2.61 0 1.443 1.159 2.611 2.588 2.611ZM27.727 27.21c1.43 0 2.588-1.169 2.588-2.61 0-1.443-1.159-2.612-2.588-2.612-1.43 0-2.588 1.17-2.588 2.611 0 1.442 1.159 2.61 2.588 2.61ZM22.627 32.39c1.43 0 2.588-1.17 2.588-2.611 0-1.442-1.158-2.611-2.588-2.611-1.43 0-2.588 1.169-2.588 2.61 0 1.443 1.159 2.611 2.588 2.611ZM9.608 16.607c1.43 0 2.588-1.168 2.588-2.61s-1.159-2.611-2.588-2.611c-1.43 0-2.588 1.169-2.588 2.61 0 1.442 1.158 2.611 2.588 2.611ZM15.881 5.808c1.43 0 2.589-1.17 2.589-2.611 0-1.442-1.16-2.611-2.589-2.611-1.43 0-2.588 1.169-2.588 2.61 0 1.443 1.159 2.612 2.588 2.612ZM15.881 19.65c1.43 0 2.588-1.168 2.588-2.61s-1.158-2.611-2.588-2.611c-1.43 0-2.588 1.169-2.588 2.61 0 1.443 1.159 2.611 2.588 2.611Z"/></svg>