<svg transform="matrix(1,0,0,1,0,0)" xmlns:xlink="http://www.w3.org/1999/xlink" version="1.1" xmlns="http://www.w3.org/2000/svg" viewBox="45.39 48.214285714285715 200.25 208.92857142857142" style="max-height: 500px" width="200.25" height="208.92857142857142">
  <text x="310" text-anchor="left" font-size="260" font-family="DM Sans">
    <tspan x="310" dy="14.72">WebAudioStudio</tspan>
  </text>
  <path d="M0,20A20,20,90,0,1,20,0L21.667,0A20,20,90,0,1,41.667,20L41.66666666666667,50L0,50ZM0,50L41.66666666666667,50L41.66666666666667,100L0,100ZM0,100L41.66666666666667,100L41.667,130A20,20,-270,0,1,21.667,150L20,150A20,20,90,0,1,0,130ZM50,150L91.66666666666667,150L91.667,180A20,20,-270,0,1,71.667,200L70,200A20,20,90,0,1,50,180ZM50,100L91.66666666666667,100L91.66666666666667,150L50,150ZM50,50L91.66666666666667,50L91.66666666666667,100L50,100ZM50,20A20,20,90,0,1,70,0L71.667,0A20,20,90,0,1,91.667,20L91.66666666666667,50L50,50ZM100,20A20,20,90,0,1,120,0L121.667,0A20,20,90,0,1,141.667,20L141.66666666666669,50L100,50ZM100,50L141.66666666666669,50L141.66666666666669,100L100,100ZM100,100L141.66666666666669,100L141.66666666666669,150L100,150ZM100,150L141.66666666666669,150L141.667,180A20,20,-270,0,1,121.667,200L120,200A20,20,90,0,1,100,180ZM150,150L191.66666666666669,150L191.667,180A20,20,-270,0,1,171.667,200L170,200A20,20,90,0,1,150,180ZM150,120A20,20,90,0,1,170,100L171.667,100A20,20,90,0,1,191.667,120L191.66666666666669,150L150,150ZM150,20A20,20,90,0,1,170,0L171.667,0A20,20,90,0,1,191.667,20L191.667,30A20,20,-270,0,1,171.667,50L170,50A20,20,90,0,1,150,30Z" transform="matrix(1,0,0,1,50,50)"/>
</svg>